<?xml version="1.0" encoding="UTF-8" standalone="no"?>
<!-- Created with Inkscape (http://www.inkscape.org/) -->

<svg
   width="1000.0001"
   height="1000.0001"
   viewBox="0 0 264.58334 264.58336"
   version="1.1"
   id="svg5"
   inkscape:version="1.1 (c68e22c387, 2021-05-23)"
   sodipodi:docname="favicon.svg"
   xmlns:inkscape="http://www.inkscape.org/namespaces/inkscape"
   xmlns:sodipodi="http://sodipodi.sourceforge.net/DTD/sodipodi-0.dtd"
   xmlns="http://www.w3.org/2000/svg"
   xmlns:svg="http://www.w3.org/2000/svg">
  <sodipodi:namedview
     id="namedview7"
     pagecolor="#1a1a1a"
     bordercolor="#ff0066"
     borderopacity="1"
     inkscape:pageshadow="0"
     inkscape:pageopacity="0"
     inkscape:pagecheckerboard="true"
     inkscape:document-units="px"
     showgrid="false"
     units="px"
     inkscape:showpageshadow="false"
     inkscape:zoom="0.33317902"
     inkscape:cx="166.57712"
     inkscape:cy="481.72301"
     inkscape:window-width="1920"
     inkscape:window-height="1017"
     inkscape:window-x="1912"
     inkscape:window-y="-8"
     inkscape:window-maximized="1"
     inkscape:current-layer="layer1" />
  <defs
     id="defs2" />
  <g
     inkscape:label="Layer 1"
     inkscape:groupmode="layer"
     id="layer1"
     transform="translate(184.51466,-2.4485307)">
    <rect
       ry="0"
       y="2.4485307"
       x="-184.51466"
       height="264.58334"
       width="264.58334"
       id="rect6642"
       style="fill:none;fill-opacity:1;stroke:none;stroke-width:1.48828;stroke-linecap:round;stroke-linejoin:miter;stroke-miterlimit:4;stroke-dasharray:none;stroke-dashoffset:0;stroke-opacity:1"
       inkscape:export-filename="D:\Downloads\favicon.png"
       inkscape:export-xdpi="96"
       inkscape:export-ydpi="96" />
    <path
       id="path3347"
       d="M -52.187649,14.549694 A 120.1906,120.1906 0 0 0 -163.2848,89.020157 c 23.09796,-13.080679 42.46478,-18.108925 59.49871,-18.401283 2.48575,-0.04267 4.922351,0.0145 7.313524,0.162135 19.129385,1.180793 35.34782,8.101373 50.959085,15.298228 15.611388,7.196864 30.620063,14.666833 47.3492431,17.072383 C 18.47283,105.5439 36.836362,102.95408 59.327399,90.056781 A 120.1906,120.1906 0 0 0 -52.187649,14.549694 Z"
       style="fill:#000000;fill-opacity:1;stroke:#fefefe;stroke-width:11.9062493;stroke-linecap:round;stroke-linejoin:round;stroke-miterlimit:4;stroke-dasharray:none;stroke-dashoffset:0;stroke-opacity:1"
       inkscape:connector-curvature="0" />
    <path
       id="path4412"
       d="m -103.73583,160.25743 c -17.10957,0.28578 -36.61527,5.3838 -60.09697,18.87847 a 120.1906,120.1906 0 0 0 111.645151,75.79481 120.1906,120.1906 0 0 0 111.268471,-74.93399 c -22.298182,12.59282 -40.742546,15.17862 -57.409457,12.78202 -16.96585,-2.43955 -32.078381,-9.97871 -47.66885,-17.16599 -15.590592,-7.18729 -31.655655,-14.02702 -50.548115,-15.1932 -2.351066,-0.14513 -4.74595,-0.20295 -7.19023,-0.16212 z"
       style="fill:#000000;fill-opacity:1;stroke:#fefefe;stroke-width:11.9062493;stroke-linecap:round;stroke-linejoin:round;stroke-miterlimit:4;stroke-dasharray:none;stroke-dashoffset:0;stroke-opacity:1"
       inkscape:connector-curvature="0" />
    <path
       id="path3343"
       d="M -52.187649,14.549694 A 120.1906,120.1906 0 0 0 -163.68896,90.12757 c 22.43163,12.83243 40.75666,15.41169 57.36155,13.02405 16.729173,-2.40555 31.737847,-9.875519 47.349236,-17.072383 15.611265,-7.196855 31.8297,-14.117435 50.9590806,-15.298228 2.3911749,-0.147689 4.8279,-0.204805 7.31353114,-0.162135 C 16.351513,70.91164 35.747288,75.95234 58.886719,89.072669 A 120.1906,120.1906 0 0 0 -52.187649,14.549694 Z"
       style="fill:#000000;fill-opacity:1;stroke:#fefefe;stroke-width:11.9062493;stroke-linecap:round;stroke-linejoin:round;stroke-miterlimit:4;stroke-dasharray:none;stroke-dashoffset:0;stroke-opacity:1"
       inkscape:connector-curvature="0" />
    <path
       id="circle4325"
       d="m -0.7535951,160.25743 c -2.4456454,-0.0409 -4.8422599,0.017 -7.1946841,0.16212 -18.8924638,1.16618 -34.9575268,8.00591 -50.5481198,15.1932 -15.590593,7.18728 -30.703001,14.72644 -47.668851,17.16599 -16.6252,2.39061 -35.01781,-0.17741 -57.2406,-12.6884 A 120.1906,120.1906 0 0 0 -52.187649,254.93071 120.1906,120.1906 0 0 0 59.38681,179.16104 C 35.886546,165.64766 16.366621,160.54389 -0.7535951,160.25743 Z"
       style="fill:#000000;fill-opacity:1;stroke:#fefefe;stroke-width:11.9062493;stroke-linecap:round;stroke-linejoin:round;stroke-miterlimit:4;stroke-dasharray:none;stroke-dashoffset:0;stroke-opacity:1"
       inkscape:connector-curvature="0" />
  </g>
</svg>
